<svg xmlns="http://www.w3.org/2000/svg" xmlns:xlink="http://www.w3.org/1999/xlink" width="375pt" height="374.999991pt" viewBox="0 0 375 374.999991" version="1.2">
                <defs>
                <clipPath id="clip1">
                  <path d="M 150.085938 154.296875 L 214 154.296875 L 214 235.285156 L 150.085938 235.285156 Z M 150.085938 154.296875 "/>
                </clipPath>
                </defs>
                <g id="surface1">
                <path style=" stroke:none;fill-rule:nonzero;fill:rgb(93.728638%,27.839661%,43.528748%);fill-opacity:1;" d="M 224.914062 158.710938 L 253.757812 158.710938 L 253.757812 187.558594 L 224.914062 187.558594 Z M 224.914062 158.710938 "/>
                <path style=" stroke:none;fill-rule:nonzero;fill:rgb(27, 231, 255);fill-opacity:1;" d="M 173.308594 117.902344 L 201.75 117.902344 L 201.75 146.347656 L 173.308594 146.347656 Z M 173.308594 117.902344 "/>
                <path style=" stroke:none;fill-rule:nonzero;fill:rgb(99.609375%,84.309387%,39.99939%);fill-opacity:1;" d="M 121.699219 144.71875 L 150.140625 144.71875 L 150.140625 173.164062 L 121.699219 173.164062 Z M 121.699219 144.71875 "/>
                <path style=" stroke:none;fill-rule:nonzero;fill:rgb(100%,100%,100%);fill-opacity:1;" d="M 156.574219 217.472656 C 157.195312 221.796875 168.679688 218.421875 170.363281 220.933594 C 171.355469 222.414062 169.121094 234.40625 169.121094 234.40625 L 200.921875 234.40625 C 196.945312 224.023438 203.65625 209.4375 203.65625 209.4375 C 225.144531 172.726562 201.292969 155.175781 181.664062 155.175781 C 155.828125 155.175781 157.210938 180.769531 157.445312 183.726562 C 157.816406 188.425781 150.929688 196.386719 151.179688 198.117188 C 151.429688 199.847656 153.464844 200.308594 155.828125 200.539062 C 155.828125 200.539062 155.703125 202.515625 154.957031 203.753906 C 154.957031 203.753906 155.207031 206.222656 156.203125 206.84375 C 156.203125 206.84375 155.457031 208.324219 155.457031 209.3125 C 155.457031 210.304688 156.957031 210.796875 156.824219 212.15625 C 156.425781 216.109375 156.574219 217.472656 156.574219 217.472656 Z M 156.574219 217.472656 "/>
                <g clip-path="url(#clip1)" clip-rule="nonzero">
                <path style=" stroke:none;fill-rule:nonzero;fill:rgb(1.959229%,2.349854%,2.749634%);fill-opacity:1;" d="M 200.929688 235.28125 C 200.925781 235.28125 200.925781 235.28125 200.921875 235.28125 L 169.121094 235.28125 C 168.859375 235.28125 168.613281 235.164062 168.445312 234.964844 C 168.277344 234.765625 168.210938 234.503906 168.257812 234.246094 C 169.269531 228.8125 170.078125 222.355469 169.621094 221.394531 C 169.183594 220.75 166.394531 220.75 165.34375 220.75 C 165.015625 220.75 164.683594 220.75 164.351562 220.753906 C 164.007812 220.753906 163.660156 220.757812 163.316406 220.757812 C 160.640625 220.757812 156.160156 220.757812 155.703125 217.59375 C 155.695312 217.503906 155.550781 216.066406 155.949219 212.070312 C 155.984375 211.726562 155.820312 211.503906 155.414062 211.039062 C 155.042969 210.613281 154.578125 210.082031 154.578125 209.3125 C 154.578125 208.550781 154.902344 207.628906 155.148438 207.035156 C 154.34375 205.988281 154.125 204.238281 154.085938 203.839844 C 154.066406 203.652344 154.109375 203.464844 154.207031 203.300781 C 154.539062 202.75 154.738281 201.945312 154.847656 201.308594 C 153.097656 201.082031 150.632812 200.488281 150.3125 198.238281 C 150.175781 197.300781 150.933594 196 152.523438 193.386719 C 154.316406 190.433594 156.773438 186.390625 156.570312 183.796875 C 156.382812 181.4375 155.828125 169.269531 163.226562 161.308594 C 167.542969 156.660156 173.746094 154.300781 181.664062 154.300781 C 193.347656 154.300781 204.238281 160.089844 209.414062 169.046875 C 213.695312 176.457031 216.300781 189.546875 204.4375 209.835938 C 204.074219 210.644531 198.078125 224.335938 201.707031 234 C 201.769531 234.121094 201.804688 234.257812 201.804688 234.40625 C 201.804688 234.886719 201.414062 235.28125 200.929688 235.28125 Z M 170.171875 233.53125 L 199.695312 233.53125 C 196.515625 223.070312 202.585938 209.660156 202.855469 209.074219 C 202.867188 209.046875 202.882812 209.023438 202.894531 208.996094 C 214.367188 189.40625 211.945312 176.933594 207.890625 169.917969 C 203.023438 161.492188 192.730469 156.046875 181.664062 156.046875 C 174.257812 156.046875 168.488281 158.214844 164.515625 162.492188 C 157.613281 169.921875 158.144531 181.425781 158.320312 183.660156 C 158.570312 186.8125 156.050781 190.957031 154.027344 194.289062 C 153.148438 195.730469 152.058594 197.527344 152.050781 198.019531 C 152.183594 198.925781 153.300781 199.414062 155.914062 199.667969 C 156.386719 199.714844 156.734375 200.121094 156.703125 200.59375 C 156.699219 200.675781 156.574219 202.535156 155.863281 203.925781 C 155.996094 204.84375 156.339844 205.898438 156.667969 206.101562 C 157.050781 206.339844 157.1875 206.828125 156.984375 207.230469 C 156.734375 207.734375 156.332031 208.746094 156.332031 209.3125 C 156.332031 209.429688 156.558594 209.6875 156.738281 209.890625 C 157.164062 210.378906 157.808594 211.117188 157.695312 212.242188 C 157.320312 216.003906 157.445312 217.367188 157.445312 217.382812 C 157.640625 218.726562 159.933594 219.011719 163.316406 219.011719 C 163.65625 219.011719 164 219.007812 164.339844 219.003906 C 167.359375 218.988281 170.082031 218.941406 171.09375 220.449219 C 172.078125 221.917969 170.90625 229.429688 170.171875 233.53125 Z M 170.171875 233.53125 "/>
                </g>
                <path style=" stroke:none;fill-rule:nonzero;fill:rgb(1.959229%,2.349854%,2.749634%);fill-opacity:1;" d="M 201.640625 191.527344 C 200.5625 191.527344 199.632812 191.324219 199.214844 191.21875 C 198.6875 191.324219 198.171875 191.375 197.675781 191.375 C 193.910156 191.375 191.816406 188.332031 190.976562 186.082031 C 190.59375 186.203125 190.1875 186.265625 189.757812 186.265625 C 186.933594 186.265625 183.851562 183.507812 182.625 182.289062 C 181.273438 183.148438 179.789062 183.585938 178.207031 183.585938 C 174.742188 183.585938 171.816406 181.484375 170.84375 180.703125 C 170.28125 180.789062 169.734375 180.832031 169.21875 180.832031 C 164.300781 180.832031 162.507812 176.929688 162.21875 174.738281 C 160.40625 170.632812 164.242188 166.910156 165.273438 166.011719 C 166.378906 161.789062 170.109375 161.214844 171.289062 161.136719 C 172.722656 159.691406 174.625 158.929688 176.8125 158.929688 C 177.941406 158.929688 178.886719 159.136719 179.421875 159.28125 C 180.382812 158.648438 181.472656 158.328125 182.664062 158.328125 C 185.574219 158.328125 188.292969 160.257812 189.269531 161.039062 C 189.753906 160.921875 190.25 160.863281 190.746094 160.863281 C 194.621094 160.863281 197.519531 164.378906 198.339844 165.492188 C 203.085938 166.335938 204.640625 170.855469 204.839844 173.496094 C 209.773438 177.863281 207.558594 184.820312 207.140625 185.988281 C 207.082031 189.511719 205.085938 191.527344 201.640625 191.527344 Z M 199.277344 189.417969 L 199.5 189.484375 C 199.507812 189.488281 200.484375 189.777344 201.640625 189.777344 C 204.160156 189.777344 205.386719 188.488281 205.386719 185.828125 L 205.386719 185.664062 L 205.445312 185.511719 C 205.472656 185.441406 208.125 178.425781 203.425781 174.589844 L 203.113281 174.335938 L 203.105469 173.9375 C 203.097656 173.691406 202.863281 167.835938 197.722656 167.164062 L 197.324219 167.113281 L 197.101562 166.777344 C 197.074219 166.738281 194.296875 162.609375 190.746094 162.609375 C 190.269531 162.609375 189.792969 162.6875 189.324219 162.835938 L 188.84375 162.988281 L 188.472656 162.652344 C 188.441406 162.625 185.550781 160.074219 182.664062 160.074219 C 181.699219 160.074219 180.867188 160.355469 180.117188 160.933594 L 179.730469 161.234375 L 179.269531 161.0625 C 179.261719 161.058594 178.199219 160.679688 176.8125 160.679688 C 174.976562 160.679688 173.46875 161.320312 172.332031 162.585938 L 172.054688 162.894531 L 171.601562 162.875 C 170.960938 162.875 167.730469 163.058594 166.914062 166.683594 L 166.847656 166.984375 L 166.605469 167.175781 C 166.5625 167.210938 162.257812 170.707031 163.871094 174.132812 L 163.933594 174.265625 L 163.949219 174.410156 C 163.96875 174.597656 164.53125 179.085938 169.21875 179.085938 C 169.753906 179.085938 170.332031 179.03125 170.941406 178.917969 L 171.371094 178.835938 L 171.695312 179.128906 C 171.722656 179.15625 174.730469 181.839844 178.207031 181.839844 C 179.652344 181.839844 180.996094 181.371094 182.203125 180.449219 L 182.847656 179.957031 L 183.390625 180.558594 C 184.382812 181.660156 187.460938 184.519531 189.757812 184.519531 C 190.238281 184.519531 190.648438 184.394531 191.011719 184.140625 L 192.078125 183.390625 L 192.371094 184.65625 C 192.417969 184.859375 193.589844 189.628906 197.675781 189.628906 C 198.109375 189.628906 198.574219 189.574219 199.050781 189.46875 Z M 199.277344 189.417969 "/>
                <path style=" stroke:none;fill-rule:nonzero;fill:rgb(1.959229%,2.349854%,2.749634%);fill-opacity:1;" d="M 201.726562 180.785156 C 201.648438 180.785156 201.570312 180.777344 201.492188 180.753906 C 199.460938 180.199219 198.773438 178.625 198.21875 177.363281 C 197.660156 176.082031 197.257812 175.277344 196.09375 174.960938 C 194.929688 174.640625 194.167969 175.125 193.027344 175.941406 C 191.902344 176.742188 190.503906 177.742188 188.472656 177.183594 C 186.441406 176.628906 185.753906 175.058594 185.203125 173.792969 C 184.640625 172.511719 184.238281 171.710938 183.074219 171.390625 C 181.910156 171.070312 181.152344 171.554688 180.007812 172.371094 C 178.886719 173.175781 177.488281 174.175781 175.453125 173.617188 C 173.425781 173.0625 172.738281 171.488281 172.183594 170.226562 C 171.625 168.945312 171.222656 168.144531 170.058594 167.824219 C 169.589844 167.695312 169.316406 167.214844 169.445312 166.75 C 169.574219 166.285156 170.058594 166.011719 170.527344 166.140625 C 172.554688 166.695312 173.242188 168.269531 173.796875 169.53125 C 174.355469 170.8125 174.757812 171.613281 175.921875 171.933594 C 177.085938 172.253906 177.84375 171.769531 178.984375 170.953125 C 180.109375 170.148438 181.507812 169.148438 183.539062 169.707031 C 185.570312 170.265625 186.257812 171.835938 186.8125 173.097656 C 187.371094 174.378906 187.773438 175.183594 188.9375 175.5 C 190.101562 175.820312 190.863281 175.335938 192.003906 174.519531 C 193.128906 173.71875 194.527344 172.71875 196.558594 173.277344 C 198.589844 173.832031 199.277344 175.402344 199.828125 176.667969 C 200.390625 177.949219 200.792969 178.75 201.957031 179.070312 C 202.425781 179.199219 202.699219 179.679688 202.570312 180.144531 C 202.464844 180.53125 202.109375 180.785156 201.726562 180.785156 Z M 201.726562 180.785156 "/>
                </g>
                </svg>
